<svg version="1.1" xmlns="http://www.w3.org/2000/svg" viewBox="0 0 1448 720.5" width="1448" height="720.5">
  <!-- svg-source:excalidraw -->
  
  <defs>
    <style>
      @font-face {
        font-family: "Virgil";
        src: url("https://excalidraw.com/Virgil.woff2");
      }
      @font-face {
        font-family: "Cascadia";
        src: url("https://excalidraw.com/Cascadia.woff2");
      }
    </style>
  </defs>
  <rect x="0" y="0" width="1448" height="720.5" fill="#ffffff"></rect><g stroke-linecap="round" transform="translate(10 571) rotate(0 116 60)"><path d="M1.15 -1.51 C55.41 1.44, 113.11 -0.87, 232.45 0.79 M-0.58 0.62 C53.51 1.05, 106.8 0.45, 232.74 -0.34 M231.63 -0.19 C234.31 44.1, 233.53 87.3, 232.45 118.61 M231.1 -0.57 C231.1 40.01, 231.16 80.33, 231.56 119.67 M233.42 121.14 C155.06 121.71, 79.65 121.81, -0.9 120.56 M232.5 119.59 C166.97 120.58, 101.41 120.54, 0.46 120.84 M0.07 121.17 C-1.1 90.27, 0.03 59.26, -0.83 -0.87 M-0.94 120.44 C-1.01 88.27, -0.14 54.9, -0.01 -0.56" stroke="#000000" stroke-width="1" fill="none"></path></g><g transform="translate(86 612.5) rotate(0 44.5 18)"><text x="0" y="25" font-family="Virgil, Segoe UI Emoji" font-size="28px" fill="#000000" text-anchor="start" style="white-space: pre;" direction="ltr">Issuer</text></g><g stroke-linecap="round" transform="translate(546 10) rotate(0 129 53.5)"><path d="M0.62 1.04 C97.87 -2.48, 195.08 -3.28, 258.84 0.04 M0.62 -0.44 C72.44 1.52, 146.84 1.05, 258.74 -0.76 M259.01 1.59 C255.79 42.02, 258.01 82.12, 256.35 108.97 M258.54 -0.3 C258.52 42.62, 259.07 85.41, 257.91 106.55 M257.22 107.97 C158.73 108.34, 59.69 106.77, 1.26 105.95 M258.42 106.63 C180.43 107.83, 102.65 107.05, 0.07 106.92 M1.29 108.96 C-0.55 83.25, 1.61 59.5, 1.51 -0.05 M-0.38 106.13 C1.32 68.16, -0.59 28.33, 0.39 -0.43" stroke="#000000" stroke-width="1" fill="none"></path></g><g transform="translate(639 45.5) rotate(0 41 18)"><text x="41" y="25" font-family="Virgil, Segoe UI Emoji" font-size="28px" fill="#000000" text-anchor="middle" style="white-space: pre;" direction="ltr">Holder</text></g><g stroke-linecap="round" transform="translate(1180 603.5) rotate(0 129 53.5)"><path d="M-0.62 -1.41 C96 1.69, 187.32 0.6, 258.63 -0.69 M0.43 -0.55 C78.09 -1.94, 154.59 -2.43, 257.99 -0.65 M259.47 0.31 C256.39 38.11, 259.63 77.87, 259.42 106.27 M258.82 0.93 C257.43 39.83, 258.24 78.02, 258.4 107.15 M258.51 106.08 C194.79 104.46, 134.38 105.2, -0.98 107.52 M257.72 107.42 C194.86 109.33, 132.94 109.01, 0.43 107.28 M-0.59 107.82 C2.7 76.64, 2.8 46.26, 1.25 1.2 M-0.68 106.57 C-0.11 67.55, 0.43 28.76, -0.9 0.97" stroke="#000000" stroke-width="1" fill="none"></path></g><g transform="translate(1261.5 639) rotate(0 47.5 18)"><text x="47.5" y="25" font-family="Virgil, Segoe UI Emoji" font-size="28px" fill="#000000" text-anchor="middle" style="white-space: pre;" direction="ltr">Verifier</text></g><g stroke-linecap="round"><g transform="translate(192 541) rotate(0 168.5438118218584 -199.93192161247137)"><path d="M0.96 0.17 C57.02 -66.62, 281.22 -333.33, 337.09 -400.04 M0 -0.78 C55.95 -67.44, 280.8 -332.18, 336.71 -398.52" stroke="#000000" stroke-width="1" fill="none"></path></g><g transform="translate(192 541) rotate(0 168.5438118218584 -199.93192161247137)"><path d="M326.62 -368.56 C329.8 -380.27, 333.42 -391.11, 337.09 -397 M326.64 -369.41 C331.01 -379.7, 334.3 -389.95, 336.99 -398.53" stroke="#000000" stroke-width="1" fill="none"></path></g><g transform="translate(192 541) rotate(0 168.5438118218584 -199.93192161247137)"><path d="M310.95 -381.82 C319.81 -388.92, 329.02 -395.03, 337.09 -397 M310.98 -382.66 C320.88 -388.21, 329.75 -393.74, 336.99 -398.53" stroke="#000000" stroke-width="1" fill="none"></path></g></g><g stroke-linecap="round"><g transform="translate(826 146) rotate(0 155.16000946834686 200.25238354107833)"><path d="M-0.82 -0.84 C50.88 65.88, 259.28 333.07, 311.14 399.87 M0.95 1.34 C52.43 68.29, 258.88 334.68, 310.27 401.34" stroke="#000000" stroke-width="1" fill="none"></path></g><g transform="translate(826 146) rotate(0 155.16000946834686 200.25238354107833)"><path d="M283.51 385.56 C294.16 390.46, 303.91 399.42, 310.38 402.73 M285.34 386.21 C292.07 390.34, 299.66 395.18, 309.52 401.18" stroke="#000000" stroke-width="1" fill="none"></path></g><g transform="translate(826 146) rotate(0 155.16000946834686 200.25238354107833)"><path d="M299.75 373 C304.25 382.51, 307.9 396.19, 310.38 402.73 M301.57 373.66 C303.55 381.69, 306.29 390.27, 309.52 401.18" stroke="#000000" stroke-width="1" fill="none"></path></g></g><g stroke-linecap="round"><g transform="translate(1122 657) rotate(0 -417.6847370497883 -7.7421303279697895)"><path d="M0.8 -1.13 C-138.46 -3.56, -696.71 -12.02, -836.17 -14.36" stroke="#000000" stroke-width="1.5" fill="none" stroke-dasharray="8 9"></path></g><g transform="translate(1122 657) rotate(0 -417.6847370497883 -7.7421303279697895)"><path d="M-809.7 -26.13 C-813.83 -23.15, -822.22 -17.81, -836.94 -12.46" stroke="#000000" stroke-width="1.5" fill="none"></path></g><g transform="translate(1122 657) rotate(0 -417.6847370497883 -7.7421303279697895)"><path d="M-810.02 -5.61 C-814.12 -7.77, -822.43 -7.57, -836.94 -12.46" stroke="#000000" stroke-width="1.5" fill="none"></path></g></g><g transform="translate(593 645.5) rotate(0 40.5 18)"><text x="0" y="25" font-family="Virgil, Segoe UI Emoji" font-size="28px" fill="#000000" text-anchor="start" style="white-space: pre;" direction="ltr">Trust</text></g><g transform="translate(281 331.5) rotate(309.5596679689945 112.5 18)"><text x="0" y="25" font-family="Virgil, Segoe UI Emoji" font-size="28px" fill="#000000" text-anchor="start" style="white-space: pre;" direction="ltr">Issue credential</text></g><g transform="translate(842 340.5) rotate(51.404352726384154 111.5 18)"><text x="0" y="25" font-family="Virgil, Segoe UI Emoji" font-size="28px" fill="#000000" text-anchor="start" style="white-space: pre;" direction="ltr">Proof credential</text></g></svg>